<svg xmlns="http://www.w3.org/2000/svg" data-name="Layer 2" viewBox="0 0 100 100"><path d="M82,70.2V27.74A8,8,0,1,0,72,20a7.93,7.93,0,0,0,1.12,4.06l-2.53,2.53a2,2,0,1,0,2.82,2.82l2.53-2.53a8,8,0,0,0,2.06.86V70.2a10.09,10.09,0,0,0-3.51,1.46L58.34,55.51a10,10,0,0,0,0-11l7.07-7.08a2,2,0,0,0-2.82-2.82l-7.08,7.07a10,10,0,0,0-11,0L35.2,32.37A14,14,0,1,0,22,37.84V68.26A8,8,0,1,0,32,76a7.93,7.93,0,0,0-1.12-4.06l4-4a2,2,0,0,0-2.82-2.82l-4,4A8,8,0,0,0,26,68.26V37.84a13.9,13.9,0,0,0,6.37-2.64l9.29,9.29a10,10,0,0,0,0,11l-1.07,1.08a2,2,0,1,0,2.82,2.82l1.08-1.07a10,10,0,0,0,11,0L71.66,74.49A9.91,9.91,0,0,0,70,80a10,10,0,1,0,12-9.8ZM80,16a4,4,0,1,1-4,4A4,4,0,0,1,80,16ZM14,24A10,10,0,1,1,24,34,10,10,0,0,1,14,24ZM28,76a4,4,0,1,1-4-4A4,4,0,0,1,28,76ZM45.76,54.24a6,6,0,1,1,8.48,0A6,6,0,0,1,45.76,54.24ZM80,86a6,6,0,1,1,6-6A6,6,0,0,1,80,86ZM66,32a2,2,0,1,1,2,2A2,2,0,0,1,66,32ZM39.5,62.5a2,2,0,1,1-2-2A2,2,0,0,1,39.5,62.5Z"/></svg>